<?xml version="1.0" encoding="utf-8"?>
<!-- Generator: Adobe Illustrator 23.0.6, SVG Export Plug-In . SVG Version: 6.00 Build 0)  -->
<svg version="1.1" id="Layer_1" xmlns="http://www.w3.org/2000/svg" xmlns:xlink="http://www.w3.org/1999/xlink" x="0px" y="0px"
	 viewBox="0 0 200 200" style="enable-background:new 0 0 200 200;" xml:space="preserve">
<style type="text/css">
	.st0{fill:#FF973B;}
	.st1{fill:#FF7642;}
	.st2{display:none;}
	.st3{display:inline;fill:url(#SVGID_1_);}
	.st4{display:inline;fill:url(#SVGID_2_);}
	.st5{display:inline;fill:url(#SVGID_3_);}
	.st6{display:inline;fill:url(#SVGID_4_);}
	.st7{display:inline;fill:url(#SVGID_5_);}
	.st8{display:inline;fill:url(#SVGID_6_);}
	.st9{display:inline;fill:url(#SVGID_7_);}
	.st10{display:inline;fill:url(#SVGID_8_);}
	.st11{display:inline;fill:url(#SVGID_9_);}
	.st12{display:inline;fill:url(#SVGID_10_);}
	.st13{display:inline;fill:url(#SVGID_11_);}
	.st14{display:inline;fill:url(#SVGID_12_);}
	.st15{display:inline;fill:url(#SVGID_13_);}
	.st16{display:inline;fill:url(#SVGID_14_);}
	.st17{display:inline;fill:url(#SVGID_15_);}
	.st18{display:inline;fill:url(#SVGID_16_);}
	.st19{display:inline;fill:url(#SVGID_17_);}
	.st20{display:inline;fill:url(#SVGID_18_);}
	.st21{display:inline;fill:url(#SVGID_19_);}
	.st22{display:inline;fill:url(#SVGID_20_);}
	.st23{display:inline;fill:url(#SVGID_21_);}
	.st24{display:inline;fill:url(#SVGID_22_);}
	.st25{display:inline;fill:url(#SVGID_23_);}
	.st26{display:inline;fill:url(#SVGID_24_);}
	.st27{display:inline;fill:url(#SVGID_25_);}
	.st28{display:inline;fill:url(#SVGID_26_);}
	.st29{fill:url(#SVGID_27_);}
	.st30{fill:#FFFFFF;}
</style>
<g class="st2">
</g>
<g>
	<linearGradient id="SVGID_1_" gradientUnits="userSpaceOnUse" x1="35.8003" y1="23.001" x2="162.2365" y2="174.6444">
		<stop  offset="0" style="stop-color:#FF973B"/>
		<stop  offset="1" style="stop-color:#FF7642"/>
	</linearGradient>
	<circle style="fill:url(#SVGID_1_);" cx="100" cy="100" r="98.11"/>
	<path class="st30" d="M144.09,76.74c0,1.8-0.68,3.61-2.05,4.98l-42.26,42.25l-3.74,3.74c-3.42,3.42-8.97,3.43-12.39,0L58.1,102.17
		c-2.82-2.82-3-7.62-0.08-10.35c1.35-1.26,3.08-1.89,4.8-1.89c1.79,0,3.6,0.68,4.97,2.05l19.75,19.75c1.28,1.28,3.35,1.28,4.62,0
		l39.94-39.95c2.75-2.74,7.2-2.74,9.94,0C143.41,73.16,144.09,74.95,144.09,76.74z"/>
</g>
</svg>
